HIERARCHY
ROOT Hips
{
	OFFSET 0.00 0.00 0.00
	CHANNELS 6 Xposition Yposition Zposition Xrotation Yrotation Zrotation
	JOINT Spine
	{
		OFFSET 0.00000 7.50895 0.00000
		CHANNELS 3 Xrotation Yrotation Zrotation
		JOINT Head
		{
			OFFSET 0.00000 13.86115 0.00000
			CHANNELS 3 Xrotation Yrotation Zrotation
			End Site
			{
				OFFSET 0.00000 4.52755 0.00000
			}
		}
		JOINT LeftShoulder
		{
			OFFSET 0.00000 8.20478 0.00000
			CHANNELS 3 Xrotation Yrotation Zrotation
			JOINT LeftArm
			{
				OFFSET 6.63596 0.00000 0.00000
				CHANNELS 3 Xrotation Yrotation Zrotation
				JOINT LeftForeArm
				{
					OFFSET 10.27422 0.00000 0.00000
					CHANNELS 3 Yrotation Zrotation Xrotation
					JOINT LeftHand
					{
						OFFSET 8.52215 0.00000 0.00000
						CHANNELS 3 Xrotation Yrotation Zrotation
						JOINT LeftHandThumb1
						{
							OFFSET 0.00000 0.00000 0.00000
							CHANNELS 3 Xrotation Zrotation Yrotation
							End Site
							{
								OFFSET 0.00000 0.00000 3.93700
							}
						}
						End Site
						{
							OFFSET 3.93700 0.00000 0.00000
						}
					}
				}
			}
		}
		JOINT RightShoulder
		{
			OFFSET 0.00000 8.20478 0.00000
			CHANNELS 3 Xrotation Yrotation Zrotation
			JOINT RightArm
			{
				OFFSET -6.63596 0.00000 0.00000
				CHANNELS 3 Xrotation Yrotation Zrotation
				JOINT RightForeArm
				{
					OFFSET -10.27422 0.00000 0.00000
					CHANNELS 3 Yrotation Zrotation Xrotation
					JOINT RightHand
					{
						OFFSET -8.52215 0.00000 0.00000
						CHANNELS 3 Xrotation Yrotation Zrotation
						JOINT RightHandThumb1
						{
							OFFSET 0.00000 0.00000 0.00000
							CHANNELS 3 Xrotation Zrotation Yrotation
							End Site
							{
								OFFSET 0.00000 0.00000 3.93700
							}
						}
						End Site
						{
							OFFSET -3.93700 0.00000 0.00000
						}
					}
				}
			}
		}
	}
	JOINT LeftUpLeg
	{
		OFFSET 3.00056 0.00000 0.00000
		CHANNELS 3 Xrotation Yrotation Zrotation
		JOINT LeftLeg
		{
			OFFSET 0.00000 -16.49085 0.00000
			CHANNELS 3 Xrotation Yrotation Zrotation
			JOINT LeftFoot
			{
				OFFSET 0.00000 -14.55658 0.00000
				CHANNELS 3 Xrotation Yrotation Zrotation
				JOINT LeftToeBase
				{
					OFFSET 0.00000 -1.25038 4.66650
					CHANNELS 3 Xrotation Yrotation Zrotation
					End Site
					{
						OFFSET 0.00000 0.00000 2.95275
					}
				}
			}
		}
	}
	JOINT RightUpLeg
	{
		OFFSET -3.00056 0.00000 0.00000
		CHANNELS 3 Xrotation Yrotation Zrotation
		JOINT RightLeg
		{
			OFFSET 0.00000 -16.49085 0.00000
			CHANNELS 3 Xrotation Yrotation Zrotation
			JOINT RightFoot
			{
				OFFSET 0.00000 -14.55658 0.00000
				CHANNELS 3 Xrotation Yrotation Zrotation
				JOINT RightToeBase
				{
					OFFSET 0.00000 -1.25038 4.66650
					CHANNELS 3 Xrotation Yrotation Zrotation
					End Site
					{
						OFFSET 0.00000 0.00000 2.95275
					}
				}
			}
		}
	}
}
MOTION
Frames: 7
Frame Time: 0.008333
 -5.1756 33.5595 0.0344 127.6263 42.7420 75.0706 4.3011 14.8549 -17.0246 -76.2027 -8.0064 13.2543 14.8023 19.3900 33.2809 -106.7513 -41.0747 -24.2551 -16.2806 -0.0000 1.7453 -38.0409 16.0487 70.5404 33.1476 -0.0000 26.2537 -22.2097 13.8930 -33.2380 -74.2264 30.5578 34.8231 23.7306 0.0000 9.9325 -6.4739 -5.1596 -51.6025 32.8623 0.0000 -24.3270 -107.1639 -20.0032 20.4946 2.3705 0.0000 -0.0000 -1.8604 19.7937 -3.8647 -17.2121 -0.0000 -0.0000 -7.1341 -9.3318 -7.2245 18.5944 -0.0000 -0.0000 19.5557 -5.6346 -6.5844 12.9850 0.0000 0.0000
 -5.5765 33.8236 0.0246 128.4575 44.3048 73.3340 3.3604 15.6527 -16.2247 -76.5046 -7.8782 12.9341 14.9137 19.8452 33.1149 -105.3473 -42.6729 -22.9456 -15.3801 -0.0000 -0.8670 -38.1955 15.2391 71.5269 33.1476 -0.0000 26.2537 -21.2781 11.8757 -33.1764 -76.7773 31.3327 35.4567 23.0250 0.0000 10.1793 -6.3068 -4.8573 -52.5433 32.8623 0.0000 -24.3270 -106.6367 -19.1256 21.1936 -1.2767 -0.0000 -0.0000 4.8743 16.5448 -3.4343 -18.0028 0.0000 0.0000 -5.4198 -9.3964 -7.0754 17.6973 -0.0000 -0.0000 20.3620 -5.2047 -6.7615 13.0829 0.0000 0.0000
 -5.9823 34.0761 0.0300 129.2224 45.9413 71.6666 2.2197 16.2831 -15.3662 -76.8706 -7.5947 12.5873 15.7188 20.4148 32.5829 -105.1825 -44.0315 -22.0184 -14.6501 -0.0000 -2.6378 -38.3769 14.6139 72.3285 33.1476 -0.0000 26.2537 -20.4671 9.9983 -32.9767 -79.1493 32.3090 36.2085 22.1264 0.0000 10.3137 -6.2495 -4.7066 -53.1567 32.8623 0.0000 -24.3270 -106.1388 -18.8547 21.6244 -3.6319 0.0000 0.0000 12.0122 15.6514 -5.5754 -16.5530 0.0000 0.0000 -3.9544 -9.4818 -6.9066 16.9579 -0.0000 -0.0000 21.2942 -5.1994 -6.4747 12.3156 -0.0000 -0.0000
 -6.3736 34.3060 0.0270 129.7305 47.3737 69.8672 1.1594 16.5959 -13.8074 -77.2249 -7.1711 11.8537 16.3503 20.6690 31.6018 -105.7260 -45.1178 -21.9264 -14.0895 -0.0000 -3.6023 -38.3574 13.9994 73.0025 33.1476 -0.0000 26.2537 -19.9795 8.4955 -33.0771 -81.2551 33.1762 37.1870 21.2639 0.0000 10.3739 -6.2201 -4.5059 -54.2149 32.8623 0.0000 -24.3270 -105.8830 -18.5709 21.4775 -4.2851 0.0000 0.0000 17.0176 17.0469 -7.6277 -10.1127 -0.0000 -0.0000 -2.2510 -9.5950 -6.3395 16.2582 -0.0000 0.0000 22.2221 -5.2685 -6.1309 12.5472 -0.0000 -0.0000
 -6.7621 34.5227 0.0036 130.3229 48.4953 67.7019 0.2557 16.8459 -11.6995 -77.7579 -6.6028 10.8552 17.3136 21.0153 30.2197 -107.3851 -45.8559 -22.4799 -13.6919 -0.0000 -3.6014 -38.5843 13.2212 74.0043 33.1476 -0.0000 26.2537 -19.6357 7.2825 -33.3269 -83.0541 34.1376 38.1245 20.3237 0.0000 10.1059 -6.0473 -4.2402 -55.0874 32.8623 0.0000 -24.3270 -105.2838 -19.3438 21.4871 -3.4940 -0.0000 0.0000 20.6720 20.4590 -11.3285 -2.4595 -0.0000 0.0000 -0.3824 -9.3667 -5.3421 15.6193 -0.0000 -0.0000 23.4758 -5.3204 -5.7752 12.4284 0.0000 0.0000
 -7.1531 34.7286 0.0221 130.9522 50.0155 66.2487 -0.9611 16.6471 -10.6523 -78.0498 -6.3711 10.3297 18.0489 21.3695 29.4331 -109.7388 -45.6954 -23.6568 -13.8708 -0.0000 -2.6922 -39.2454 13.0270 74.5740 33.1476 -0.0000 26.2537 -19.4776 6.5120 -33.4227 -84.1902 34.8446 38.7514 19.5261 0.0000 9.7160 -5.8306 -3.9531 -55.9759 32.8623 0.0000 -24.3270 -104.9053 -19.7760 21.3979 -1.4475 0.0000 -0.0000 22.6447 24.7222 -13.7804 1.9345 -0.0000 0.0000 0.5819 -9.1235 -5.1432 15.5814 -0.0000 -0.0000 24.2817 -5.1296 -5.8005 12.5726 -0.0000 0.0000
 -7.5465 34.9158 0.0559 131.4157 51.6390 65.2236 -2.1515 16.1424 -10.0693 -78.3594 -6.1671 10.1345 17.7671 21.4729 29.1731 -111.7327 -45.1440 -25.4415 -14.1319 -0.0000 -1.7207 -39.4094 12.6854 75.0372 33.1476 -0.0000 26.2537 -19.4749 6.0130 -33.3008 -84.8805 35.6269 39.0971 18.8196 0.0000 9.2047 -5.6211 -3.6713 -56.9524 32.8623 0.0000 -24.3270 -104.5225 -20.0117 21.1048 1.6274 -0.0000 0.0000 22.9763 27.7802 -14.7527 1.7437 0.0000 0.0000 1.2172 -9.1162 -5.2302 15.6672 0.0000 0.0000 25.1008 -4.6322 -6.1006 12.7955 0.0000 0.0000
